<?xml version="1.0" standalone="no"?>
<!DOCTYPE svg PUBLIC "-//W3C//DTD SVG 20010904//EN"
 "http://www.w3.org/TR/2001/REC-SVG-20010904/DTD/svg10.dtd">
<svg version="1.0" xmlns="http://www.w3.org/2000/svg"
 width="700.000000pt" height="700.000000pt" viewBox="0 0 700.000000 700.000000"
 preserveAspectRatio="xMidYMid meet">
<metadata>
Created by potrace 1.14, written by Peter Selinger 2001-2017
</metadata>
<g transform="translate(0.000000,700.000000) scale(0.100000,-0.100000)"
fill="#000000" stroke="none">
<path d="M2079 6996 c-2 -2 -28 -6 -57 -10 -108 -13 -288 -69 -396 -122 -420
-211 -701 -598 -766 -1055 -6 -41 -11 -171 -11 -289 l-1 -216 -187 -1 c-164
-1 -193 -3 -242 -22 -75 -29 -138 -86 -174 -157 -38 -78 -40 -192 -5 -268 33
-71 104 -139 176 -166 53 -20 77 -22 245 -23 l187 -1 0 -423 -1 -423 -26 -1
c-14 0 -102 -1 -196 -2 -152 -3 -175 -5 -220 -25 -66 -30 -138 -103 -166 -166
-33 -76 -32 -183 2 -256 33 -70 89 -126 159 -159 52 -24 64 -26 235 -28 99 -1
187 -2 196 -3 15 0 16 -40 16 -423 l0 -423 -186 -1 c-167 -1 -192 -3 -246 -24
-148 -55 -234 -225 -190 -374 22 -76 55 -126 110 -169 77 -58 121 -68 329 -69
l184 -2 1 -220 c0 -320 34 -492 143 -709 193 -385 535 -648 968 -742 81 -18
179 -19 2340 -19 l2255 0 53 28 c69 36 119 88 151 157 l26 55 0 3255 0 3255
-26 55 c-32 69 -82 121 -151 157 l-53 28 -2236 3 c-1229 1 -2237 0 -2240 -2z"/>
</g>
</svg>
